<svg width="30" height="30" viewBox="0 0 30 30" fill="none" xmlns="http://www.w3.org/2000/svg">
<g clip-path="url(#clip0)">
<path d="M29.6563 14.1705C29.6559 14.1701 29.6556 14.1697 29.6552 14.1694L23.532 8.07562C23.0732 7.61912 22.3312 7.62082 21.8746 8.07961C21.4181 8.53834 21.4198 9.28031 21.8786 9.73687L25.9897 13.8281H1.17188C0.524648 13.8281 0 14.3528 0 15C0 15.6472 0.524648 16.1719 1.17188 16.1719H25.9897L21.8786 20.2631C21.4199 20.7197 21.4181 21.4617 21.8747 21.9204C22.3313 22.3792 23.0733 22.3808 23.532 21.9244L29.6553 15.8306C29.6556 15.8303 29.6559 15.8299 29.6563 15.8295C30.1153 15.3714 30.1138 14.627 29.6563 14.1705Z" fill="#1E2228" fill-opacity="0.6"/>
</g>
<defs>
<clipPath id="clip0">
<rect width="30" height="30" fill="white"/>
</clipPath>
</defs>
</svg>
